<svg width="40" height="36" viewBox="0 0 40 36" fill="none" xmlns="http://www.w3.org/2000/svg">
<path d="M19.6429 15.9643V14.1429C19.6429 10.1255 16.4386 6.85715 12.5 6.85715C8.56138 6.85715 5.35714 10.1255 5.35714 14.1429V15.9643H0V31.4464C0 33.9613 1.99872 36 4.46429 36H20.5357C23.0013 36 25 33.9613 25 31.4464V15.9643H19.6429ZM8.92857 14.1429C8.92857 12.1342 10.5307 10.5 12.5 10.5C14.4693 10.5 16.0714 12.1342 16.0714 14.1429V15.9643H8.92857V14.1429ZM17.8571 20.9732C17.1175 20.9732 16.5179 20.3616 16.5179 19.6071C16.5179 18.8527 17.1175 18.2411 17.8571 18.2411C18.5968 18.2411 19.1964 18.8527 19.1964 19.6071C19.1964 20.3616 18.5968 20.9732 17.8571 20.9732ZM7.14286 20.9732C6.40318 20.9732 5.80357 20.3616 5.80357 19.6071C5.80357 18.8527 6.40318 18.2411 7.14286 18.2411C7.88253 18.2411 8.48214 18.8527 8.48214 19.6071C8.48214 20.3616 7.88253 20.9732 7.14286 20.9732Z" fill="#BDBDBD"/>
<rect x="17" y="0.529999" width="23" height="23" rx="11.5" fill="#FC6904"/>
<path d="M28.459 16.6765C26.459 16.6765 25.459 15.2722 25.459 12.4636C25.459 11.0066 25.7285 9.89719 26.2676 9.13547C26.8105 8.36984 27.5957 7.98703 28.623 7.98703C30.5762 7.98703 31.5527 9.41476 31.5527 12.2702C31.5527 13.6921 31.2852 14.782 30.75 15.5398C30.2188 16.2976 29.4551 16.6765 28.459 16.6765ZM28.541 9.39914C27.7402 9.39914 27.3398 10.405 27.3398 12.4167C27.3398 14.3112 27.7324 15.2585 28.5176 15.2585C29.2832 15.2585 29.666 14.282 29.666 12.3288C29.666 10.3757 29.291 9.39914 28.541 9.39914Z" fill="white"/>
</svg>
